<svg enable-background="new 0 0 16 16" viewBox="0 0 16 16" xmlns="http://www.w3.org/2000/svg"><path d="m0 0h16v16h-16z" fill="#e7e5cb"/><text fill="#333" font-family="'Avenir-Black'" font-size="5.1747" transform="translate(5.3638 10.1826)">Lc</text><g fill="none" stroke="#333" stroke-miterlimit="10" stroke-width=".25"><path d="m5.6 13h.2 4.4.2"/><path d="m5.6 3.6h.2 4.4.2"/><path d="m12.7 5.9v.2 4.4.2"/><path d="m3.3 10.7v-.2-4.4-.2"/><path d="m10 13.2.2-.2 2.5-2.5.2-.2"/><path d="m3.1 6.3.2-.2 2.5-2.5.2-.2"/><path d="m10 3.4.2.2 2.5 2.5.2.2"/><path d="m6 13.2-.2-.2-2.5-2.5-.2-.2"/><circle cx="8" cy="8.3" r="5.3"/></g></svg>